<svg width="32" height="32" viewBox="0 0 32 32" fill="none" xmlns="http://www.w3.org/2000/svg">
<circle cx="16" cy="16" r="15.125" stroke="black" stroke-width="0.25"/>
<path d="M27.6112 17.2847H23.4426V22.2553H22.1562V11H28.306V12.2214H23.4426V16.0711H27.6112V17.2847Z" fill="#CD5C5C"/>
<path d="M16.4234 18.6143H15.144V11H16.4234V18.6143ZM15.0201 21.5055C15.0201 21.2581 15.0843 21.052 15.2127 20.8871C15.3457 20.7221 15.5429 20.6397 15.8043 20.6397C16.0657 20.6397 16.2629 20.7221 16.3959 20.8871C16.5335 21.052 16.6023 21.2581 16.6023 21.5055C16.6023 21.7425 16.5335 21.9409 16.3959 22.1007C16.2629 22.2605 16.0657 22.3403 15.8043 22.3403C15.5429 22.3403 15.3457 22.2605 15.2127 22.1007C15.0843 21.9409 15.0201 21.7425 15.0201 21.5055Z" fill="#CD5C5C"/>
<path d="M6.16428 22.2553L3 11H4.36202L6.56325 19.4028L6.70771 19.9517L6.85904 19.3874L9.07404 11H10.4292L7.27178 22.2553H6.16428Z" fill="#CD5C5C"/>
<path fill-rule="evenodd" clip-rule="evenodd" d="M28.3052 17.9444H24.1366V22.915H22.2633V11H29V12.881H24.1366V16.0711H28.3052V17.9444ZM23.8431 16.4009V12.5512H28.7065V11.3298H22.5568V16.9575V22.5851H23.8431V17.6146H28.0117V16.4009H23.8431Z" fill="#CD5C5C"/>
<path fill-rule="evenodd" clip-rule="evenodd" d="M17.1174 19.274H15.251V11H17.1174V19.274ZM15.3958 20.9954C15.6007 20.7412 15.8885 20.6397 16.2048 20.6397C16.5202 20.6397 16.8072 20.7406 17.0121 20.9932C17.2046 21.2249 17.2963 21.5136 17.2963 21.8353C17.2963 22.1508 17.2022 22.4326 17.0091 22.6579C16.8036 22.9034 16.5176 23 16.2048 23C15.8912 23 15.6045 22.9028 15.3989 22.6559L15.3954 22.6516C15.2132 22.4249 15.1271 22.1451 15.1271 21.8353C15.1271 21.519 15.2111 21.2325 15.3924 20.9997L15.3958 20.9954ZM16.7964 22.4305C16.934 22.2708 17.0028 22.0724 17.0028 21.8353C17.0028 21.5879 16.934 21.3818 16.7964 21.2169C16.6634 21.052 16.4662 20.9695 16.2048 20.9695C15.9434 20.9695 15.7462 21.052 15.6132 21.2169C15.4848 21.3818 15.4206 21.5879 15.4206 21.8353C15.4206 22.0724 15.4848 22.2708 15.6132 22.4305C15.7462 22.5903 15.9434 22.6702 16.2048 22.6702C16.4662 22.6702 16.6634 22.5903 16.7964 22.4305ZM16.8239 18.9442V11.3298H15.5445V18.9442H16.8239Z" fill="#CD5C5C"/>
<path fill-rule="evenodd" clip-rule="evenodd" d="M6.34973 22.915L3 11H4.98209L7.11018 19.1236L9.25552 11H11.23L7.88751 22.915H6.34973ZM4.76254 11.3298H3.40052L6.5648 22.5851H7.6723L10.8297 11.3298H9.47456L7.25957 19.7172L7.10823 20.2815L6.96378 19.7327L4.76254 11.3298Z" fill="#CD5C5C"/>
</svg>
