<svg width="132" height="24" viewBox="0 0 132 24" fill="none" xmlns="http://www.w3.org/2000/svg">
<rect x="0.5" y="0.5" width="131" height="23" stroke="#F6F6F6"/>
<rect x="1" y="1" width="65" height="22" fill="#CD5C5C"/>
<rect x="66.5" y="1.5" width="64" height="21" fill="#F7F7F7" stroke="#CD5C5C"/>
<path d="M13.9883 13.0566H10.4258V16.0801H14.5801V17H9.3418V8.46875H14.5273V9.39453H10.4258V12.1367H13.9883V13.0566ZM20.9668 14.8438C20.9668 14.582 20.9062 14.3613 20.7852 14.1816C20.668 14.002 20.5156 13.8496 20.3281 13.7246C20.1406 13.6035 19.9336 13.502 19.707 13.4199C19.4844 13.3379 19.2695 13.2637 19.0625 13.1973C18.7617 13.0996 18.4551 12.9824 18.1426 12.8457C17.834 12.7051 17.5527 12.5371 17.2988 12.3418C17.041 12.1426 16.8301 11.9082 16.666 11.6387C16.5059 11.3652 16.4258 11.0449 16.4258 10.6777C16.4258 10.3105 16.5059 9.98242 16.666 9.69336C16.8301 9.4043 17.043 9.16016 17.3047 8.96094C17.5664 8.76172 17.8633 8.61133 18.1953 8.50977C18.5273 8.4043 18.8613 8.35156 19.1973 8.35156C19.5684 8.35156 19.9258 8.41406 20.2695 8.53906C20.6133 8.66016 20.918 8.83203 21.1836 9.05469C21.4492 9.27734 21.6621 9.54688 21.8223 9.86328C21.9824 10.1797 22.0664 10.5332 22.0742 10.9238H20.9609C20.9297 10.6777 20.8691 10.4551 20.7793 10.2559C20.6895 10.0527 20.5703 9.87891 20.4219 9.73438C20.2734 9.58984 20.0957 9.47852 19.8887 9.40039C19.6855 9.31836 19.4551 9.27734 19.1973 9.27734C18.9902 9.27734 18.7871 9.30664 18.5879 9.36523C18.3926 9.42383 18.2188 9.51172 18.0664 9.62891C17.9102 9.74609 17.7852 9.89062 17.6914 10.0625C17.6016 10.2344 17.5566 10.4336 17.5566 10.6602C17.5605 10.9062 17.623 11.1152 17.7441 11.2871C17.8652 11.4551 18.0195 11.5977 18.207 11.7148C18.3906 11.832 18.5898 11.9297 18.8047 12.0078C19.0234 12.0859 19.2285 12.1543 19.4199 12.2129C19.7363 12.3105 20.0527 12.4297 20.3691 12.5703C20.6855 12.707 20.9746 12.8828 21.2363 13.0977C21.4941 13.2969 21.7012 13.541 21.8574 13.8301C22.0176 14.1191 22.0977 14.4531 22.0977 14.832C22.0977 15.2148 22.0117 15.5488 21.8398 15.834C21.6719 16.1191 21.4531 16.3555 21.1836 16.543C20.9141 16.7344 20.6094 16.8789 20.2695 16.9766C19.9297 17.0703 19.5898 17.1172 19.25 17.1172C18.8438 17.1172 18.4434 17.0488 18.0488 16.9121C17.6582 16.7754 17.3184 16.5781 17.0293 16.3203C16.7715 16.0977 16.5664 15.8379 16.4141 15.541C16.2656 15.2402 16.1855 14.9062 16.1738 14.5391H17.2812C17.3164 14.8047 17.3887 15.041 17.498 15.248C17.6074 15.4512 17.748 15.623 17.9199 15.7637C18.0918 15.9082 18.2891 16.0176 18.5117 16.0918C18.7383 16.1621 18.9844 16.1973 19.25 16.1973C19.4609 16.1973 19.668 16.1719 19.8711 16.1211C20.0781 16.0664 20.2617 15.9824 20.4219 15.8691C20.582 15.7598 20.7129 15.6211 20.8145 15.4531C20.916 15.2812 20.9668 15.0781 20.9668 14.8438ZM29.4629 9.39453H26.8262V17H25.7715V9.39453H23.1348V8.46875H29.4629V9.39453ZM36.2715 8.46875L36.2832 14.2461C36.2832 14.6445 36.2129 15.0176 36.0723 15.3652C35.9316 15.7129 35.7383 16.0156 35.4922 16.2734C35.2461 16.5352 34.9531 16.7422 34.6133 16.8945C34.2734 17.043 33.9004 17.1172 33.4941 17.1172C33.0801 17.1172 32.7031 17.043 32.3633 16.8945C32.0234 16.7461 31.7324 16.541 31.4902 16.2793C31.248 16.0215 31.0586 15.7188 30.9219 15.3711C30.7852 15.0195 30.7148 14.6445 30.7109 14.2461L30.7227 8.46875H31.7539L31.7773 14.2461C31.7812 14.5 31.8203 14.7441 31.8945 14.9785C31.9727 15.2129 32.084 15.4199 32.2285 15.5996C32.3691 15.7793 32.5449 15.9238 32.7559 16.0332C32.9707 16.1426 33.2168 16.1973 33.4941 16.1973C33.7715 16.1973 34.0156 16.1445 34.2266 16.0391C34.4375 15.9297 34.6152 15.7832 34.7598 15.5996C34.9004 15.4199 35.0078 15.2129 35.082 14.9785C35.1562 14.7441 35.1973 14.5 35.2051 14.2461L35.2227 8.46875H36.2715ZM38.0117 17V8.46875H39.9863C40.3184 8.47266 40.6309 8.50781 40.9238 8.57422C41.2207 8.63672 41.4941 8.72656 41.7441 8.84375C42.0918 9.00391 42.3984 9.21484 42.6641 9.47656C42.9336 9.73438 43.1484 10.0332 43.3086 10.373C43.4531 10.6621 43.5625 10.9785 43.6367 11.3223C43.7148 11.666 43.7559 12.0332 43.7598 12.4238V13.0508C43.7598 13.4258 43.7227 13.7812 43.6484 14.1172C43.5781 14.4531 43.4746 14.7617 43.3379 15.043C43.1973 15.3359 43.0195 15.6016 42.8047 15.8398C42.5898 16.0781 42.3496 16.2812 42.084 16.4492C41.8027 16.625 41.4844 16.7598 41.1289 16.8535C40.7773 16.9473 40.3965 16.9961 39.9863 17H38.0117ZM39.1133 9.35938V16.1152H39.9863C40.2988 16.1113 40.582 16.0723 40.8359 15.998C41.0938 15.9238 41.3223 15.8184 41.5215 15.6816C41.7324 15.541 41.9141 15.3691 42.0664 15.166C42.2227 14.959 42.3457 14.7285 42.4355 14.4746C42.5137 14.2676 42.5723 14.0449 42.6113 13.8066C42.6504 13.5645 42.6719 13.3125 42.6758 13.0508V12.4121C42.6719 12.1465 42.6484 11.8926 42.6055 11.6504C42.5664 11.4043 42.5059 11.1758 42.4238 10.9648C42.3184 10.6914 42.1758 10.4453 41.9961 10.2266C41.8203 10.0039 41.6035 9.82422 41.3457 9.6875C41.1621 9.58594 40.957 9.50781 40.7305 9.45312C40.5039 9.39453 40.2559 9.36328 39.9863 9.35938H39.1133ZM45.3301 8.46875H50.4863V9.41211H48.4414V16.0625H50.4863V17H45.3301V16.0625H47.3281V9.41211H45.3301V8.46875ZM58.0859 13.2266C58.082 13.5312 58.0547 13.8398 58.0039 14.1523C57.957 14.4609 57.8828 14.7598 57.7812 15.0488C57.6797 15.3379 57.5488 15.6074 57.3887 15.8574C57.2324 16.1074 57.0449 16.3262 56.8262 16.5137C56.6074 16.7012 56.3555 16.8496 56.0703 16.959C55.7891 17.0645 55.4727 17.1172 55.1211 17.1172C54.7695 17.1172 54.4512 17.0645 54.166 16.959C53.8848 16.8496 53.6348 16.7012 53.416 16.5137C53.1973 16.3262 53.0078 16.1074 52.8477 15.8574C52.6875 15.6035 52.5566 15.332 52.4551 15.043C52.3496 14.7539 52.2715 14.4551 52.2207 14.1465C52.1699 13.8379 52.1426 13.5312 52.1387 13.2266V12.2539C52.1426 11.9492 52.168 11.6426 52.2148 11.334C52.2656 11.0215 52.3438 10.7207 52.4492 10.4316C52.5508 10.1426 52.6797 9.87305 52.8359 9.62305C52.9961 9.36914 53.1855 9.14648 53.4043 8.95508C53.623 8.76758 53.873 8.62109 54.1543 8.51562C54.4395 8.40625 54.7578 8.35156 55.1094 8.35156C55.4609 8.35156 55.7793 8.40625 56.0645 8.51562C56.3496 8.62109 56.6016 8.76758 56.8203 8.95508C57.0391 9.14258 57.2266 9.36328 57.3828 9.61719C57.543 9.86719 57.6758 10.1367 57.7812 10.4258C57.8828 10.7148 57.957 11.0156 58.0039 11.3281C58.0547 11.6406 58.082 11.9492 58.0859 12.2539V13.2266ZM57.0137 12.2422C57.0098 12.0391 56.9961 11.8281 56.9727 11.6094C56.9492 11.3867 56.9102 11.166 56.8555 10.9473C56.7969 10.7324 56.7207 10.5273 56.627 10.332C56.5332 10.1328 56.416 9.95703 56.2754 9.80469C56.1348 9.65625 55.9688 9.53906 55.7773 9.45312C55.5859 9.36328 55.3633 9.31836 55.1094 9.31836C54.8594 9.31836 54.6387 9.36328 54.4473 9.45312C54.2559 9.54297 54.0898 9.66211 53.9492 9.81055C53.8086 9.96289 53.6914 10.1387 53.5977 10.3379C53.5039 10.5332 53.4297 10.7383 53.375 10.9531C53.3164 11.1719 53.2734 11.3926 53.2461 11.6152C53.2227 11.834 53.209 12.043 53.2051 12.2422V13.2266C53.209 13.4258 53.2227 13.6367 53.2461 13.8594C53.2734 14.082 53.3164 14.3008 53.375 14.5156C53.4336 14.7344 53.5098 14.9434 53.6035 15.1426C53.6973 15.3418 53.8145 15.5156 53.9551 15.6641C54.0957 15.8164 54.2617 15.9375 54.4531 16.0273C54.6445 16.1172 54.8672 16.1621 55.1211 16.1621C55.375 16.1621 55.5977 16.1172 55.7891 16.0273C55.9844 15.9375 56.1523 15.8164 56.293 15.6641C56.4297 15.5156 56.543 15.3438 56.6328 15.1484C56.7266 14.9492 56.8027 14.7402 56.8613 14.5215C56.916 14.3066 56.9531 14.0879 56.9727 13.8652C56.9961 13.6426 57.0098 13.4297 57.0137 13.2266V12.2422Z" fill="#F6F6F6"/>
<path d="M82.3937 17L79.6984 8.46875H80.8586L82.7336 14.8379L82.8566 15.2539L82.9855 14.8262L84.8723 8.46875H86.0266L83.3371 17H82.3937ZM91.1324 14.2402H90.0426V8.46875H91.1324V14.2402ZM89.9371 16.4316C89.9371 16.2441 89.9918 16.0879 90.1012 15.9629C90.2145 15.8379 90.3824 15.7754 90.6051 15.7754C90.8277 15.7754 90.9957 15.8379 91.109 15.9629C91.2262 16.0879 91.2848 16.2441 91.2848 16.4316C91.2848 16.6113 91.2262 16.7617 91.109 16.8828C90.9957 17.0039 90.8277 17.0645 90.6051 17.0645C90.3824 17.0645 90.2145 17.0039 90.1012 16.8828C89.9918 16.7617 89.9371 16.6113 89.9371 16.4316ZM100.662 13.2324H97.1113V17H96.0156V8.46875H101.254V9.39453H97.1113V12.3125H100.662V13.2324ZM104.948 16.0801H109.12V17H103.864V8.46875H104.948V16.0801ZM116.223 13.0566H112.661V16.0801H116.815V17H111.577V8.46875H116.762V9.39453H112.661V12.1367H116.223V13.0566Z" fill="#CD5C5C"/>
<path d="M82.3937 17L82.1554 17.0753L82.2106 17.25H82.3937V17ZM79.6984 8.46875V8.21875H79.3573L79.4601 8.54406L79.6984 8.46875ZM80.8586 8.46875L81.0984 8.39815L81.0456 8.21875H80.8586V8.46875ZM82.7336 14.8379L82.4938 14.9085L82.4939 14.9088L82.7336 14.8379ZM82.8566 15.2539L82.6169 15.3248L82.8544 16.1278L83.096 15.326L82.8566 15.2539ZM82.9855 14.8262L83.2249 14.8983L83.2252 14.8973L82.9855 14.8262ZM84.8723 8.46875V8.21875H84.6857L84.6326 8.39762L84.8723 8.46875ZM86.0266 8.46875L86.265 8.54392L86.3675 8.21875H86.0266V8.46875ZM83.3371 17V17.25H83.5204L83.5755 17.0752L83.3371 17ZM82.6321 16.9247L79.9368 8.39344L79.4601 8.54406L82.1554 17.0753L82.6321 16.9247ZM79.6984 8.71875H80.8586V8.21875H79.6984V8.71875ZM80.6188 8.53935L82.4938 14.9085L82.9734 14.7673L81.0984 8.39815L80.6188 8.53935ZM82.4939 14.9088L82.6169 15.3248L83.0964 15.183L82.9733 14.767L82.4939 14.9088ZM83.096 15.326L83.2249 14.8983L82.7462 14.754L82.6173 15.1818L83.096 15.326ZM83.2252 14.8973L85.1119 8.53988L84.6326 8.39762L82.7459 14.755L83.2252 14.8973ZM84.8723 8.71875H86.0266V8.21875H84.8723V8.71875ZM85.7881 8.39358L83.0987 16.9248L83.5755 17.0752L86.265 8.54392L85.7881 8.39358ZM83.3371 16.75H82.3937V17.25H83.3371V16.75ZM91.1324 14.2402V14.4902H91.3824V14.2402H91.1324ZM90.0426 14.2402H89.7926V14.4902H90.0426V14.2402ZM90.0426 8.46875V8.21875H89.7926V8.46875H90.0426ZM91.1324 8.46875H91.3824V8.21875H91.1324V8.46875ZM90.1012 15.9629L89.9159 15.795L89.913 15.7983L90.1012 15.9629ZM91.109 15.9629L90.9237 16.1308L90.9266 16.1339L91.109 15.9629ZM91.109 16.8828L90.9293 16.7089L90.9264 16.712L91.109 16.8828ZM90.1012 16.8828L89.9156 17.0504L89.9186 17.0536L90.1012 16.8828ZM91.1324 13.9902H90.0426V14.4902H91.1324V13.9902ZM90.2926 14.2402V8.46875H89.7926V14.2402H90.2926ZM90.0426 8.71875H91.1324V8.21875H90.0426V8.71875ZM90.8824 8.46875V14.2402H91.3824V8.46875H90.8824ZM90.1871 16.4316C90.1871 16.2964 90.225 16.201 90.2893 16.1275L89.913 15.7983C89.7586 15.9747 89.6871 16.1919 89.6871 16.4316H90.1871ZM90.2864 16.1308C90.3384 16.0734 90.4292 16.0254 90.6051 16.0254V15.5254C90.3356 15.5254 90.0905 15.6024 89.9159 15.795L90.2864 16.1308ZM90.6051 16.0254C90.7809 16.0254 90.8718 16.0734 90.9237 16.1308L91.2942 15.795C91.1196 15.6024 90.8745 15.5254 90.6051 15.5254V16.0254ZM90.9266 16.1339C90.9961 16.208 91.0348 16.3011 91.0348 16.4316H91.5348C91.5348 16.1872 91.4563 15.9678 91.2914 15.7919L90.9266 16.1339ZM91.0348 16.4316C91.0348 16.5512 90.9982 16.6378 90.9293 16.709L91.2886 17.0567C91.4541 16.8856 91.5348 16.6715 91.5348 16.4316H91.0348ZM90.9264 16.712C90.875 16.767 90.7832 16.8145 90.6051 16.8145V17.3145C90.8722 17.3145 91.1164 17.2408 91.2916 17.0536L90.9264 16.712ZM90.6051 16.8145C90.4269 16.8145 90.3352 16.767 90.2837 16.712L89.9186 17.0536C90.0937 17.2408 90.3379 17.3145 90.6051 17.3145V16.8145ZM90.2867 16.7152C90.2232 16.6449 90.1871 16.5562 90.1871 16.4316H89.6871C89.6871 16.6665 89.7604 16.8786 89.9156 17.0504L90.2867 16.7152ZM100.662 13.2324V13.4824H100.912V13.2324H100.662ZM97.1113 13.2324V12.9824H96.8613V13.2324H97.1113ZM97.1113 17V17.25H97.3613V17H97.1113ZM96.0156 17H95.7656V17.25H96.0156V17ZM96.0156 8.46875V8.21875H95.7656V8.46875H96.0156ZM101.254 8.46875H101.504V8.21875H101.254V8.46875ZM101.254 9.39453V9.64453H101.504V9.39453H101.254ZM97.1113 9.39453V9.14453H96.8613V9.39453H97.1113ZM97.1113 12.3125H96.8613V12.5625H97.1113V12.3125ZM100.662 12.3125H100.912V12.0625H100.662V12.3125ZM100.662 12.9824H97.1113V13.4824H100.662V12.9824ZM96.8613 13.2324V17H97.3613V13.2324H96.8613ZM97.1113 16.75H96.0156V17.25H97.1113V16.75ZM96.2656 17V8.46875H95.7656V17H96.2656ZM96.0156 8.71875H101.254V8.21875H96.0156V8.71875ZM101.004 8.46875V9.39453H101.504V8.46875H101.004ZM101.254 9.14453H97.1113V9.64453H101.254V9.14453ZM96.8613 9.39453V12.3125H97.3613V9.39453H96.8613ZM97.1113 12.5625H100.662V12.0625H97.1113V12.5625ZM100.412 12.3125V13.2324H100.912V12.3125H100.412ZM104.948 16.0801H104.698V16.3301H104.948V16.0801ZM109.12 16.0801H109.37V15.8301H109.12V16.0801ZM109.12 17V17.25H109.37V17H109.12ZM103.864 17H103.614V17.25H103.864V17ZM103.864 8.46875V8.21875H103.614V8.46875H103.864ZM104.948 8.46875H105.198V8.21875H104.948V8.46875ZM104.948 16.3301H109.12V15.8301H104.948V16.3301ZM108.87 16.0801V17H109.37V16.0801H108.87ZM109.12 16.75H103.864V17.25H109.12V16.75ZM104.114 17V8.46875H103.614V17H104.114ZM103.864 8.71875H104.948V8.21875H103.864V8.71875ZM104.698 8.46875V16.0801H105.198V8.46875H104.698ZM116.223 13.0566V13.3066H116.473V13.0566H116.223ZM112.661 13.0566V12.8066H112.411V13.0566H112.661ZM112.661 16.0801H112.411V16.3301H112.661V16.0801ZM116.815 16.0801H117.065V15.8301H116.815V16.0801ZM116.815 17V17.25H117.065V17H116.815ZM111.577 17H111.327V17.25H111.577V17ZM111.577 8.46875V8.21875H111.327V8.46875H111.577ZM116.762 8.46875H117.012V8.21875H116.762V8.46875ZM116.762 9.39453V9.64453H117.012V9.39453H116.762ZM112.661 9.39453V9.14453H112.411V9.39453H112.661ZM112.661 12.1367H112.411V12.3867H112.661V12.1367ZM116.223 12.1367H116.473V11.8867H116.223V12.1367ZM116.223 12.8066H112.661V13.3066H116.223V12.8066ZM112.411 13.0566V16.0801H112.911V13.0566H112.411ZM112.661 16.3301H116.815V15.8301H112.661V16.3301ZM116.565 16.0801V17H117.065V16.0801H116.565ZM116.815 16.75H111.577V17.25H116.815V16.75ZM111.827 17V8.46875H111.327V17H111.827ZM111.577 8.71875H116.762V8.21875H111.577V8.71875ZM116.512 8.46875V9.39453H117.012V8.46875H116.512ZM116.762 9.14453H112.661V9.64453H116.762V9.14453ZM112.411 9.39453V12.1367H112.911V9.39453H112.411ZM112.661 12.3867H116.223V11.8867H112.661V12.3867ZM115.973 12.1367V13.0566H116.473V12.1367H115.973Z" fill="#CD5C5C"/>
</svg>
